Coordinates
version=1
nRows=7
nColumns=46
inDegrees=yes

Units are S.I. units (second, meters, Newtons, ...)
Angles are in degrees.

endheader
time	pelvis_tilt	pelvis_list	pelvis_rotation	pelvis_tx	pelvis_ty	pelvis_tz	bb_angle	bb_tx	bb_ty	bb_tz	hip_flexion_r	hip_adduction_r	hip_rotation_r	knee_angle_r	knee_angle_r_beta	ankle_angle_r	subtalar_angle_r	mtp_angle_r	crank_angle_r	hip_flexion_l	hip_adduction_l	hip_rotation_l	knee_angle_l	knee_angle_l_beta	ankle_angle_l	subtalar_angle_l	mtp_angle_l	crank_angle_l	lumbar_extension	lumbar_bending	lumbar_rotation	arm_flex_r	arm_add_r	arm_rot_r	elbow_flex_r	pro_sup_r	wrist_flex_r	wrist_dev_r	arm_flex_l	arm_add_l	arm_rot_l	elbow_flex_l	pro_sup_l	wrist_flex_l	wrist_dev_l
      0.00500000	    -28.81500384	     -2.23247426	     -3.62036603	      0.14514054	      1.02454240	     -0.21093410	      0.00000000	      0.50000000	      0.00000000	      0.25000000	     88.38227220	     -0.47847870	      1.16090708	     77.02094513	      1.34426909	     11.42425371	     -2.25672572	      0.00000000	      0.00000000	     55.84757525	     -5.64186105	      4.91160118	     74.29011245	      1.29660706	     27.14639184	    -12.20864331	      0.00000000	      0.00000000	    -36.90722186	      1.51189930	      3.50218454	     86.05394224	     -4.17254784	     37.31085146	     33.84551371	     29.76574309	      0.00000000	      0.00000000	     80.92168025	     -4.96165114	     21.62098715	     38.11204511	     30.04923380	      0.00000000	      0.00000000
      0.01000000	    -28.81139870	     -2.22428341	     -3.64720974	      0.14515210	      1.02452894	     -0.21091500	      0.00000000	      0.50000000	      0.00000000	      0.25000000	     88.39289605	     -0.45308080	      1.17274230	     77.03806317	      1.34456785	     11.40852803	     -2.25645650	      0.00000000	      0.00000000	     55.84059736	     -5.66577956	      4.86969856	     74.29827313	      1.29674949	     27.14656687	    -12.21893106	      0.00000000	      0.00000000	    -36.90558144	      1.48369935	      3.55606815	     85.96454520	     -3.92004533	     36.12118187	     33.61955450	     30.98624479	      0.00000000	      0.00000000	     81.05619215	     -4.69782342	     21.18295189	     37.48272178	     31.23133255	      0.00000000	      0.00000000
      0.01500000	    -28.74730196	     -2.27781208	     -3.64090849	      0.14517910	      1.02464535	     -0.21093662	      0.00000000	      0.50000000	      0.00000000	      0.25000000	     88.30988124	     -0.46075689	      1.12454243	     77.04963896	      1.34476989	     11.58757607	     -2.05493960	      0.00000000	      0.00000000	     55.77730377	     -5.70758627	      4.90261186	     74.30399100	      1.29684929	     27.20593033	    -12.09276436	      0.00000000	      0.00000000	    -37.00952331	      1.52500140	      3.71098829	     85.79591741	     -3.84998116	     34.76263113	     33.81870670	     32.03351974	      0.00000000	      0.00000000	     81.08003449	     -4.43842785	     20.73618359	     37.35916003	     32.28493163	      0.00000000	      0.00000000
      0.02000000	    -28.79406024	     -2.20319539	     -3.61879385	      0.14504967	      1.02455170	     -0.21079369	      0.00000000	      0.50000000	      0.00000000	      0.25000000	     88.39963462	     -0.45826103	      1.21708407	     77.08761320	      1.34543266	     11.45790709	     -2.24442126	      0.00000000	      0.00000000	     55.80335951	     -5.63652437	      4.89647100	     74.26547804	      1.29617711	     27.16621289	    -12.16487352	      0.00000000	      0.00000000	    -36.92166878	      1.44357409	      3.57199988	     85.88611098	     -3.62420600	     34.59534962	     33.18727848	     33.31682417	      0.00000000	      0.00000000	     81.20807822	     -4.52039097	     20.79162478	     36.81553953	     33.55242707	      0.00000000	      0.00000000
      0.02500000	    -28.75192529	     -2.28061173	     -3.57582270	      0.14498197	      1.02460826	     -0.21097268	      0.00000000	      0.50000000	      0.00000000	      0.25000000	     88.37524847	     -0.55548024	      1.09491006	     77.15817660	      1.34666423	     11.52290556	     -2.11436033	      0.00000000	      0.00000000	     55.78735028	     -5.65096154	      4.99080249	     74.29825660	      1.29674921	     27.24912545	    -12.08510181	      0.00000000	      0.00000000	    -36.96490156	      1.56112059	      3.58022292	     85.96257817	     -3.65128828	     34.68765679	     33.05559046	     33.79213335	      0.00000000	      0.00000000	     81.22844223	     -4.59085158	     20.95527727	     36.74632701	     34.03875627	      0.00000000	      0.00000000
      0.03000000	    -28.79804146	     -2.25729465	     -3.64140115	      0.14498734	      1.02466864	     -0.21068538	      0.00000000	      0.50000000	      0.00000000	      0.25000000	     88.41609588	     -0.41761447	      1.19124124	     77.12236261	      1.34603915	     11.54508878	     -2.32561640	      0.00000000	      0.00000000	     55.80932918	     -5.72942717	      4.88847415	     74.24641676	      1.29584443	     27.19460218	    -12.08397536	      0.00000000	      0.00000000	    -36.93275286	      1.49094326	      3.63234497	     85.88601876	     -3.66309878	     34.52847383	     33.02047680	     34.54224777	      0.00000000	      0.00000000	     81.16405982	     -4.63960218	     20.87256383	     36.79274211	     34.78233182	      0.00000000	      0.00000000
      0.03500000	    -29.03964668	     -2.30738701	     -3.64329313	      0.14485565	      1.02424942	     -0.21067285	      0.00000000	      0.50000000	      0.00000000	      0.25000000	     88.66558862	     -0.38589176	      1.15545986	     77.10262282	      1.34569463	     11.50813009	     -2.49855088	      0.00000000	      0.00000000	     56.10639785	     -5.74438074	      4.97710419	     74.29332790	      1.29666318	     27.07375094	    -12.34444189	      0.00000000	      0.00000000	    -36.79089132	      1.53178634	      3.61858883	     85.11888420	     -3.94872778	     32.90078819	     35.31084866	     35.23935266	      0.00000000	      0.00000000	     80.33732633	     -4.94857370	     19.91129564	     38.95960278	     35.48595773	      0.00000000	      0.00000000
